<?xml version="1.0" encoding="UTF-8"?>
<svg width="18px" height="14px" viewBox="0 0 18 14" version="1.1" xmlns="http://www.w3.org/2000/svg" xmlns:xlink="http://www.w3.org/1999/xlink">
    <title>icon/arrow</title>
    <g id="Symbols" stroke="none" stroke-width="1" fill="none" fill-rule="evenodd">
        <g id="nav/mobile" transform="translate(-98.000000, -11.000000)" fill="#FFFFFF">
            <g id="icon/arrow" transform="translate(98.229656, 11.000000)">
                <path d="M14.8496618,6.55167956 C14.8002515,6.60160456 14.7348857,6.62630972 14.66952,6.62630972 C14.6041543,6.62630972 14.5387886,6.60160456 14.4888636,6.55167956 L10.029583,2.09188426 L10.029583,15.253556 L7.98420194,15.253556 L7.98420194,2.05482653 L3.4873489,6.55167956 C3.43948266,6.59903111 3.37514632,6.62630972 3.30720714,6.62630972 C3.23926796,6.62630972 3.17441693,6.59903111 3.12655069,6.55167956 L2.1748875,5.61185426 C2.0750375,5.51251895 2.0750375,5.35090605 2.1748875,5.25105605 L8.79741331,-1.32823574 C8.84579424,-1.37661667 8.91321873,-1.40080713 8.98064322,-1.39926306 C9.05167054,-1.40440997 9.12424193,-1.38279296 9.17879915,-1.32823574 L15.7833108,5.23870347 C15.831177,5.28605502 15.8579409,5.35142074 15.8579409,5.41884523 C15.8579409,5.48626972 15.831177,5.55163544 15.7833108,5.59898699 L14.8496618,6.55167956 Z" id="Path" transform="translate(8.978970, 6.926778) rotate(90.000000) translate(-8.978970, -6.926778) "></path>
            </g>
        </g>
    </g>
</svg>