<svg height="42" viewBox="0 0 766 42" width="766" xmlns="http://www.w3.org/2000/svg"><g fill="#9b9b9b"><g transform="translate(314.30139 .926829)"><path d="m25.2204199 0c1.3744969.255212 2.7809588.446621 4.1234907.7975375 9.8132685 2.61592301 16.9095083 11.675949 17.1971937 21.8525276v.7975375c-.1278602.0319015-.2876854.063803-.4155455.063803-1.8220076 0-3.6440151 0-5.5619177 0-.2237553-6.125088-2.6850637-11.0060176-7.7035757-14.45137957-3.2604345-2.29690801-7.256065-3.31775601-11.2516955-2.87113501-8.6944921.82943901-15.50304646 8.29439008-15.56697655 17.35441608-1.69414734 0-3.38829468 0-5.05047698 0-.31965044-.0319015-.67126593-.063803-.99091637-.127606v-.1595075c.06393009-.2233105.09589513-.446621.09589513-.6699315.35161549-10.5274951 7.67161061-19.49181659 17.93238977-21.9482321 1.0868115-.255212 2.2055881-.4147195 3.2923996-.6061285z"/><path d="m38.8375287 23.4795041h-6.0413934c-.1278601-3.126347-1.3425318-5.7103685-3.8038402-7.6244585-1.6941474-1.3079615-3.7718752-2.0097945-5.9135332-1.91409-2.4613084.0319015-4.8267217 1.084651-6.520869 2.871135-1.7900425 1.8183855-2.6211336 4.083392-2.7170288 6.6674135h-6.04139332c.15982522-5.359452 2.26951812-9.634253 6.55283402-12.7606001 5.018512-3.66867247 11.7951013-3.89198297 17.0693336-.574227 4.7947567 3.062544 7.192135 7.5287541 7.4158903 13.3348271z"/><path d="m15.5350115 23.4476026c.1278601-2.871135 1.2786017-5.1361415 3.6759801-6.635512 2.6850637-1.658878 5.4660225-1.658878 8.1510862 0 2.3973783 1.467469 3.580085 3.7324755 3.6759801 6.635512z"/><path d="m19.6265371 26.5739496c1.6302173 0 3.2284695-.127606 4.7947567.0319015 2.5572035.255212 4.1234907 2.233105 4.0275955 4.785225-.0639301 2.488317-1.8220075 4.3067025-4.379211 4.46621-1.4703921.0957045-2.9088191.0319015-4.4431412.0319015zm2.4613084 7.082133c1.3744969.0319015 2.7170288.2233105 3.5161549-1.1803555.5434057-.893242.5114407-2.0097945-.0958951-2.8392335-.8630562-1.212257-2.141658-.893242-3.3882947-.893242z"/><path d="m8.2469814 31.2315686c0-2.8392335 2.0457628-4.849028 4.9545818-4.849028 2.9088191 0 4.9545819 2.0097945 4.9545819 4.849028s-2.0457628 4.8171265-4.8906518 4.8171265c-2.908819 0-4.98654686-2.0097945-5.0185119-4.8171265zm2.5252385-.0319015c0 1.531272 1.0228814 2.615923 2.4613084 2.615923s2.3973783-1.1165525 2.3973783-2.5840215-1.0228814-2.6478245-2.4293434-2.6478245c-1.4064619 0-2.4293433 1.084651-2.4293433 2.615923z"/><path d="m38.6137734 35.8572861c-.6393009 0-1.1507416-.0319015-1.6302173 0-.767161.063803-1.3744969-.0319015-1.5343221-.957045-.031965-.1595075-.3835805-.319015-.5753708-.3509165-.6073358-.0319015-1.2146717.0319015-1.7900425-.0319015-.767161-.0319015-1.470392-.0319015-1.5982522.9889465-.031965.127606-.2876854.319015-.4475106.319015-.7671611.0319015-1.5662872.0319015-2.4293434.0319015.0958952-.319015.1598253-.5423255.2237553-.7337345.9909164-2.679726 1.9818328-5.3275505 2.9727492-7.975375.1598252-.4785225.3835805-.6699315.8950212-.63803.7671611.063803 1.7580774-.2233105 2.3014832.127606.5434057.3509165.6712659 1.3717645.9589513 2.105499.8630562 2.3288095 1.7261124 4.6895205 2.6530987 7.1140345zm-3.9636655-3.5410665c-.3516155-1.020848-.6712659-2.0097945-1.0548465-3.1582485-.3835805 1.1803555-.7032309 2.1374005-1.0548464 3.1582485z"/><path d="m37.654822 26.5739496c.0319651 0 .0639301-.0319015.1278602-.0319015 2.4932735-.1595075 2.4932735-.1595075 3.7399102 2.0097945l.767161 1.3079615c.5753708-1.020848 1.0868116-1.91409 1.6621823-2.807332.1917903-.255212.5114408-.446621.8310912-.510424.703231-.063803 1.4064619-.0319015 2.2695181-.0319015-.6073358.957045-1.0548464 1.850287-1.6621823 2.615923-1.4064619 1.850287-2.205588 3.82818-1.8539725 6.188891 0 .1595075 0 .319015-.0319651.510424h-2.4293433c-.0319651-.701833-.0319651-1.403666 0-2.1374005.0958951-1.0527495-.2237553-2.105499-.8630562-2.934938-.8950213-1.3079615-1.6941474-2.6478245-2.5252385-3.9876875 0-.063803-.0319651-.127606-.0319651-.191409z"/><path d="m.12786018 28.7432516v-2.169302h7.47982033v2.1374005h-2.4613084v7.1140345h-2.49327344v-7.082133z"/></g><g transform="translate(111.480583 14.839333)"><path d="m15.4460633.11311328h-4.1473207c-6.14529988-.08925088-11.2007929 4.70054588-11.29161014 10.73985482-.09081724 6.039309 4.7830413 11.0076075 10.92834124 11.0968583h.3632689 7.8102827c1.9374344 0 3.5418723-1.5470151 3.5418723-3.4510336v-6.6640651l5.3884896 8.3598316c1.2411689 1.844518 3.7537793 2.3502729 5.6306689 1.130511 1.1503517-.7437572 1.8163448-1.9932694 1.8163448-3.3320325v-6.1583101l5.3884896 8.3598316c1.2411689 1.844518 3.7537792 2.3502729 5.6306688 1.130511 1.1503517-.7437572 1.8163448-1.9932694 1.8163448-3.3320325v-17.85017423h-2.785062v17.85017423c0 .714007-.5751758 1.2792625-1.3017138 1.2792625-.4238138 0-.8476275-.208252-1.0898068-.5652555l-9.5963551-14.84539493c-.151362-.23800232-.4540862-.29750291-.6659931-.14875145-.151362.08925087-.2421793.26775261-.2421793.44625435v13.86363533c0 .714007-.5751758 1.2792625-1.3017137 1.2792625-.4238138 0-.8476276-.208252-1.0898069-.5652555l-9.5963551-14.84539494c-.151362-.23800232-.4540862-.29750291-.665993-.14875145-.1513621.08925087-.2421794.26775261-.2421794.44625435v14.36939024c0 .4165041-.3329965.7735076-.7568103.7735076h-7.8102826c-4.60140685.0892509-8.41573093-3.5105343-8.50654817-8.0325784-.09081724-4.52204417 3.57214477-8.27058076 8.17355157-8.35983163h.3027242 4.1473206z"/><path d="m15.6341599 15.8382654c.21077 0 .3914299-.1797301.3914299-.3894152v-11.32299308c0-2.21667062 1.8065997-4.01397111 4.0648493-4.01397111 1.3549498 0 2.6496795.68896519 3.4024294 1.8272555l5.3294691 8.32749229v-6.11082167c0-2.21667062 1.8065996-4.04392612 4.0347392-4.04392612 1.3850598 0 2.6797896.68896519 3.4325394 1.8272555l5.3294691 8.32749229v-10.15474779h2.7701195v17.97300499c0 .2695951-.21077.4792801-.4817599.5092351-.15055 0-.3011-.05991-.39143-.209685l-9.6050882-14.94754917c-.39143-.59910017-1.2043998-.74887521-1.8065997-.3594601-.36132.23964006-.5720899.62905517-.5720899 1.0783803v13.95903387c0 .2695951-.21077.4792801-.4817599.5092351-.15055 0-.3011-.05991-.39143-.209685l-9.5448683-14.97750417c-.3914299-.59910017-1.2043998-.74887521-1.8065996-.3594601-.36132.23964006-.5720899.62905517-.5720899 1.0783803v14.07885387c0 .2096851-.18066.3894151-.39143.3894151h-7.3167287c-4.15517924-.23964-7.31672868-3.804286-7.07584872-7.9380772.24087996-3.77433101 3.25187942-6.79978685 7.07584872-7.03942692 0 0 4.1250693-.029955 4.1250693 0v2.75586077h-4.1250693c-2.61956951.05991001-4.69715914 2.24662562-4.63693915 4.85271135.06021999 2.5162207 2.10769962 4.5232062 4.63693915 4.6130713h4.5767192v-.029955z"/></g><g transform="translate(679.599217 16.079796)"><path d="m19.7006984 16.0534879c1.0513366.324731 2.1683818.649462 3.285427.974193.6899396.1948387 1.7741306.0649462 1.3798793 1.3313972-.3285427 1.0391392-.9856281 1.5911819-2.1355275 1.1365585l-4.7967234-1.8184936c-.2956885 1.2339778-.5585226 2.4679556-.8870653 3.7019334-.1971256.8118275-.5585226 1.4937626-1.6098593 1.298924-1.1498994-.2273117-.9527738-1.0716123-.7885024-1.8184936.1971256-1.0066661.4271055-1.9808591.6899396-3.1498907-1.5770049.1948386-2.6940501.5195696-3.4825526 1.9159129-.6570854 1.1365585-1.54415066 2.0782784-2.5954873 2.8251597-3.48255261 2.4030095-7.39221073.7144082-8.14785893-3.4421486-.91991956-4.9359113 2.00411046-11.00838107 6.53799971-13.249025 1.21560799-.58451581 2.56263305-.81182751 3.87680382-.68193511 2.0041105.1948386 2.8911758 1.78602053 2.4969245 3.73440655-.1971256.90924681-.6899396 1.36387026-1.6427135 1.23397786-.9527738-.12989244-1.4127336-.55204275-1.2813165-1.55870886.0328543-.42215031.0328543-.84430061 0-1.26645092-.5585226.1623655-1.11704516.38967721-1.67556775.61698891-3.67967823 1.88343982-6.24231128 6.52709317-5.7823515 10.58623077.13141708 1.2339778.52566832 2.3380632 1.93840192 2.7277404 1.18275372.2922579 2.49692452-.4221503 3.7125325-2.0782784h-1.37987933c-1.93840193 0-2.79261294-.974193-2.46407025-2.8576329.42710551-2.4679556 2.98973857-4.6111802 5.15812041-4.2864492 1.9712562.2597848 2.562633.974193 2.8583215 3.572041 1.7741305-.0974193 2.8911757-.7468813 3.2197184-2.7277404.2956884-1.7535474 1.0513366-3.44214865 1.6755678-5.13074987.4599598-1.26645092 1.4127336-2.04580533 2.8583215-2.04580533 2.0041104 0 3.5154068.94171991 4.5667435 2.56537493.8213567 1.23397782.3942512 2.50042877-.4928141 3.40967557-1.5770049 1.4937626-3.3182812 2.8901059-5.0924118 4.4812878zm-1.0513367-3.0524714.6570854.4546234c1.1170452-1.1690316 2.2997989-2.273117 3.3511356-3.47462174.6242311-.71440821.3613969-1.62365503-.4928141-1.88343983-.492814-.1623655-1.5112964.1623655-1.7412763.58451581-.7227939 1.33139716-1.215608 2.85763286-1.7741306 4.31892236zm-11.3018688 3.1174176.36139697.5520427c.78850248-.2597848 1.70842203-.3572041 2.33265313-.8118275.2956885-.2273117.0328543-1.1365585.0328543-1.7210743l-.59137686-.2273117z"/><path d="m74.1848499 5.6135924c-.7273357.43039773-1.5538535.79458042-2.2150678 1.35740821-1.1240642.92701048-1.8183392.49661276-2.413432-.56282779-.8595786-1.58916083-1.5538535-1.82091346-3.2399499-1.12565559-1.7852785.72836538-2.6779178 2.25131117-1.9505821 3.70804194.7273357 1.39051573 1.619975 2.71481643 2.6117964 3.93979453 2.5126142 3.3438593 2.3142499 4.3039773-1.5869143 5.8269231-.9918214.3972902-1.9836428.6952578-3.0085249.960118-1.0910035.2648601-2.0828249-.0662151-2.3473106-1.2580857-.2644857-1.2911932.8595785-1.3243007 1.7191571-1.5560533 1.2893678-.3310752 2.6117963-.6290428 4.2978927-1.0594406-1.0579428-1.3905157-2.0167035-2.3175262-2.6117963-3.4100742-.7934572-1.4898383-1.6530357-3.07899914-1.8844607-4.73437501-.2975464-2.25131118 1.2232464-3.74114945 3.1738285-4.63505242 2.0167035-.92701049 4.0664677-1.45673076 6.1823533-.09932255.5950929.33107517 1.2563071.46350524 1.9505821.36418269 3.6366785-.86079545 7.2402962-1.88712849 10.8769746-2.71481642.6281536-.16553759 1.9175214.03310752 2.0167035.33107517.3636679 1.12565559-.5289714 1.68848338-1.5207928 1.95334352-1.3224285.36418269-2.644857.72836538-3.9672855 1.05944056-1.4216107.33107517-2.3803714 1.12565558-2.8432214 2.48306379-1.3224285 4.07222467-2.6117963 8.11134177-3.8681034 12.18356637-.231425.7614729-.231425 1.6553759-1.3554893 1.5560533-1.1901856-.1324301-1.2563071-1.0925481-1.0579428-1.920236.9257-3.6087194 1.9175214-7.2174388 2.9093428-10.82615815.1322428-.49661276.3306071-.960118.4959107-1.45673076z"/><path d="m42.8777599 15.9981623c-2.1150901.1957354-3.7174311.750319-4.5186017 2.8381632-.1922809.456716-1.2498259.9134319-1.8266687.8155642-.9934514-.1631128-.7050301-1.0765447-.4486555-1.7616186 1.5062006-4.1104433 2.9483075-8.28613179 4.6788358-12.33132999.4807023-1.10916725 1.8266687-1.92473141 2.9483074-2.64242786.7370769-.48933849 1.8587156.61982875 1.8907624 1.85948627.0640937 2.0225991-.0640936 4.0451982.0640937 6.06779728.0961404 1.1091673.9614046 2.2183345.8332173 3.2296341-.1281873.9460544-1.3139196 1.6311283-1.0895919 2.9360309.1281873.750319-.0320468 1.5658832-.1281873 2.3162022-.0961404.750319-.2884214 1.5658832-1.3780132 1.4027704-.9293578-.1304903-1.2818729-.6524514-1.1857324-1.6311283.0961405-.978677.0961405-1.957354.1602341-3.0991438zm.0961405-8.48186723-.3525151-.06524513c-.7691236 2.05522167-1.5702942 4.14306586-2.3394178 6.19828756l.352515.3914708c.7691237-.3588482 2.1471369-.6198288 2.2112306-1.0765447.2884214-1.7942411.1281873-3.62110482.1281873-5.44796853z"/><path d="m30.0958072 11.7473896c1.2570316-.4291869 2.3206738-.7923451 3.3843159-1.1555032.7413264-.2641151 1.5148844-.62727326 1.9016633.4622013.386779 1.0894745-.1611579 1.650719-1.1603369 1.9478484-1.1281053.3301438-2.2239791.7263163-3.3520844 1.1555033-1.8372001.6602876-2.6107581 2.2119634-2.0628212 4.4569412.9669474-.264115 1.9338949-.5612444 2.9330739-.7923451.5801684-.1320575 1.2248001-.3301438 1.8049685-.1980863.4512421.1650719.8057895.5282301.9669474.9904314.0644632.2641151-.2900842.9244027-.6124 1.0234458-1.6760422.5942588-3.384316 1.2545464-5.1248214 1.5846902-2.3851369.429187-3.4165475-.7263163-2.9330738-3.1693804.5479369-2.8392367 1.3214948-5.6124446 1.9338948-8.41866686.0644632-.59425883-.0322316-1.22153204-.2900842-1.7827765-.386779-.99043139-.5157053-1.81579088.7090948-2.07990592 2.385137-.4952157 4.7380424-1.02344577 7.1554109-1.28756081.4834738-.06602876 1.0636422.95741701 1.6115791 1.48564709-.4190106.36315817-.8380211.66028759-1.3214948.92440263-.4512422.19808628-.999179.1650719-1.5148843.23110066-3.4165476.59425883-3.4487792.62727321-4.0289476 4.62201311z"/><path d="m51.6126492 6.64147048c-1.0105608.12995087-1.7603317.3898526-2.4449051.29238945-.5541785-.06497543-1.0105608-.5847789-1.5321406-.87716835.3585861-.48731576.6519747-1.3319964 1.0431595-1.39697183 3.4228672-.55229119 6.8783331-.97463151 10.333799-1.29950868.488981-.03248771 1.3691469.74721749 1.4995418 1.29950868.2607899 1.03960694-.6519747 1.36448411-1.5647393 1.42945954-3.9444469.29238946-3.9444469.29238946-5.1180013 4.12594001-.9453633 3.0538454-1.9233254 6.1076908-2.9012874 9.1615362-.2933887.9096561-.6845735 1.6568736-1.8907267 1.267021-1.2713506-.3898526-.9127645-1.2345333-.6519747-2.1117016 1.0105608-3.3462349 1.9885229-6.7249574 2.9338862-10.10367999.1629936-.61726662.2281911-1.20204552.2933886-1.78682443z"/><path d="m55.9911328 19.6275206c-1.2208037-.0642988-1.8468569-.1928964-1.5338303-1.3824245.8138691-2.9255962 1.565133-5.8833418 2.3163968-8.84108744.1878159-.77158581.5947505-1.15737872 1.4086197-.93233286.9077771.22504586 1.4399223.77158581 1.189501 1.7682175-.5008425 2.0254127-1.0642904 4.0186761-1.5964356 6.0440888-.2191186.8358847-.5008426 1.6396199-.8451718 2.4433551-.2191186.4179423-.7512638.707287-.9390798.9001834z"/></g><g transform="translate(195.185799 16.748293)"><path d="m36.1351922 17.1789198c-.1061696.3887075-.2477291.777415-.4246785 1.1661225-.6016278 1.3074708-1.8756631 2.1202228-3.3266478 2.0848858-4.1052249.035337-8.17506 0-12.280285 0-.0707797 0-.1415595 0-.2831189-.0353371l1.7694935-1.2014595c2.8311896-1.9082005 5.6977691-3.816401 8.5289587-5.7246015 1.7341037-1.2014596 4.105225-.742078 5.2730907.9894372.0707797.1060112.1415595.2120223.1769494.3180335.2123392.4240445.3538987.8834261.4954581 1.3428077z"/><path d="m15.7506269 17.5322903-1.0263063-2.3322451c-1.4155948-3.2510082-2.8311896-6.5020165-4.2467844-9.75302475-.88474677-1.9082005-.0707798-4.16977147 1.8048834-5.05319762.3892885-.17668523.7785771-.28269637 1.1678657-.35337047 2.3003416-.35337046 4.4945135 1.66084118 4.2467844 3.99308623-.1769493 1.73151527-.4600683 3.42769349-.7077974 5.15920876-.3538987 2.43825615-.7077974 4.87651235-1.0616961 7.31476855-.0353899.3180334-.1061696.6714039-.1415595.9894373z"/><path d="m20.4220898 19.1224574.813967-1.7668524 4.4591236-10.14173224c.8139671-1.94353755 3.0789188-2.8269637 4.9899718-2.01421164 1.9464428.81275207 2.8311896 3.07432303 2.0172226 4.98252348-.283119.6714039-.7785772 1.2721337-1.380205 1.6608412-2.1941719 1.484156-4.3883439 2.9683119-6.5825159 4.4524679l-4.2113945 2.8623007z"/><path d="m15.6090674 19.1931315-2.5834605-1.7315153-8.21044997-5.5479163c-1.3094252-.8480891-1.94644287-2.36758209-1.6633239-3.88707508.28311896-1.51949299 1.45098468-2.72095256 3.00813897-3.00364893 1.73410365-.35337046 3.4682073.53005569 4.1760047 2.12022278 1.5925442 3.56904163 3.1496985 7.10274633 4.7068528 10.67178793l.6016278 1.3428078z"/><path d="m19.9620214 4.35157201-1.5571543-.07067409c-.1061696-1.06011139.2123393-2.12022278.9201367-2.93297484 1.0263062-1.16612253 2.6896301-1.59016709 4.1760047-1.06011139 1.4863745.49471865 2.4772909 1.87286345 2.5126808 3.42769349 0 .56539274-.1061696 1.13078548-.3185089 1.66084117-1.7341036 3.99308623-3.4682073 7.98617245-5.2377008 11.97925865-.0353898.0706741-.0707797.1060112-.1415595.2826964-.0707797-.4947186-.1415594-.8480891-.1769493-1.2367966-.4600683-3.2863453-.9555265-6.53735357-1.4155948-9.82369887-.0353899-.21202228-.0353899-.38870751-.0353899-.60072979-.0353899-.4593816.2123392-.84808911.6016278-1.06011139.2477291-.14134818.4600683-.24735932.6724075-.38870751z"/><path d="m16.2106952 20.4299281h-.9909164c-3.7867161 0-7.53804237 0-11.3247585 0-2.08800235.035337-3.82210599-1.6255042-3.89288573-3.7103899-.07077975-2.0848857 1.62793403-3.816401 3.71593638-3.8870751.81396702 0 1.59254417.2120223 2.22956183.6714039l9.97994342 6.7140388c.1061696.035337.1769494.1060111.283119.2120223z"/><path d="m81.9296844 20.9953208c-.6724075-.1060111-1.3094252-.2826964-1.9818327-.4593816-3.2558681-1.0954484-5.4500401-3.2156712-6.1932273-6.6433647-.8139671-3.816401 1.0616961-7.59746494 4.6006831-9.3996543 2.3357314-1.16612253 4.7422426-1.4488189 7.2549234-.60072979.2477291.03533705.4246785.28269637.3892886.53005569-.0353899.9894373 0 1.94353755 0 2.96831189-1.4863746-.95410025-3.3266478-1.20145957-5.0253616-.60072979-1.2032556.38870751-2.2295618 1.20145958-2.9019694 2.26157097-1.4155948 2.15555983-1.2032556 5.01786053.566238 6.92606103 1.6633239 1.8021894 4.5652932 2.6149415 7.3257031.9894373.0353899.1060112.0353899.2120223.0353899.3180335v2.6502784c.0353899.2120223-.1061696.3887075-.3185088.4240446l-2.0880024.5300557h-1.6633239z"/><path d="m60.5895926 4.03353859c.0353899-.03533704.0707797-.03533704.1061696-.03533704 2.4772909.03533704 4.9545818-.07067409 7.4318728.10601114 2.3003415.14134818 4.0344452 2.15555982 3.8928857 4.45246783-.0353899.35337046-.0707797.67140388-.1769493.98943729-.2123393.70674089-.6724076 1.30747069-1.2386455 1.73151529l-.4954582.3887075c.2477291.1413482.4954582.2826964.7077974.4240445 1.6633239.9894373 2.4419011 2.9683119 1.9464429 4.8411754-.4246785 1.8728634-1.9818328 3.2863453-3.8928858 3.4983676-.6016277.0706741-1.1678657.035337-1.7694935.035337-2.1587821 0-4.2821743 0-6.4763462 0zm3.4328174 13.88745921c1.1324759 0 2.2295618.0706741 3.3266478 0 1.1678657-.1060112 2.0880024-1.0954485 2.0880024-2.261571.0353898-1.1307855-.7431873-2.2262339-1.8756632-2.332245-1.1678657-.0706741-2.3711213-.0706741-3.538987-.0353371zm0-7.2087575c.9201366 0 1.8402733.0353371 2.7604099 0 1.0263062-.1060111 1.8402733-.95410021 1.8756631-1.97887455.0707798-.95410025-.6016278-1.97887459-1.5925441-2.12022278-1.0263063-.07067409-2.0172226-.07067409-3.0435289-.03533704z"/><path d="m55.1749424 13.1858336v-9.15229501h3.4328174v16.74975991c-3.5035971-3.1803341-6.9364145-6.3253313-10.4400117-9.5410025v9.152295h-3.4328174v-16.74975991z"/></g><g transform="translate(573.364088 16.872671)"><path d="m46.0422213.17668523h.2123392 2.1233923c.1415594 0 .1769493.03533705.2123392.17668523.813967 3.88707509 1.6633239 7.80948723 2.4772909 11.69656234.0707797.3533704.1415595.6714039.283119 1.0247743.7785771-4.34645667 1.5571543-8.69291336 2.3711213-13.0747071h1.0616961.7077974c.1415595 0 .1769493.03533705.2123392.17668523.3185088 1.83752641.6370177 3.67505281.9909164 5.54791627.3892886 2.15555982.7785771 4.3111196 1.1678657 6.5020165.0707797.3180334.1061696.6007298.1769494.9187632 0-.0706741.0353898-.1060111.0353898-.1766852.566238-2.7562896 1.1324759-5.47724219 1.6987138-8.2335318.3185088-1.48415594.6016278-2.93297484.8847468-4.38179374 0-.07067409.0353898-.14134818.1415594-.14134818h2.4065112.0707798c-1.5217645 6.71403879-3.0435289 13.39274052-4.6006832 20.10677932h-1.4863745c-.813967-4.558479-1.6633239-9.0816209-2.477291-13.64009985h-.0353898l-.1415595.70674092-1.3448151 7.20875743c-.3538987 1.8728635-.7077974 3.7103899-1.0263062 5.5832533-.0353899.1060112-.0707798.1413482-.1769494.1413482-.4246784 0-.8847467 0-1.344815 0-1.5571543-6.7140388-3.0789188-13.42807757-4.6006832-20.14211637z"/><path d="m37.8671613 16.3963895c.4600683-.4593816.9555265-.8834262 1.5217644-1.2014596-.2123392-.1766852-.4246785-.3180334-.6016278-.5300557-.6370177-.7067409-1.097086-1.55483-1.2386455-2.5089303-.2831189-1.3074707-.1769493-2.65027845.283119-3.88707507.6016278-1.59016708 1.8048834-2.43825619 3.5035972-2.61494142.7785771-.0706741 1.5571543 0 2.3003415.10601113.9555265.14134819 1.9464429.10601114 2.9019694-.07067409h.0707797l.4246785 1.80218936c-.5308481.14134819-1.0616961.21202228-1.5925442.17668523l.2123392.24735933c.5308481.67140388.8493569 1.48415594.9555265 2.36758213.1769494 1.0601114.0707798 2.1555598-.3538987 3.1449971-.3185088.742078-.8493569 1.3428077-1.5217644 1.7668523l-.0707797.0706741.1769493.0706741c2.3711213.9894373 3.4682073 3.7103898 2.4772909 6.0779719-.1415594.3533705-.3538987.6714039-.5662379.9894373-.6724075.8480892-1.627934 1.4134819-2.6896301 1.6255042-2.3003416.6360668-4.7422427.1060111-6.547126-1.4488189-.0707798-.0353371-.1061696-.1060112-.1415595-.1413482l-.2123392-.2120223 1.4155948-1.55483c.4600683.4240445.9909163.7420779 1.5217644.9894373 1.0616961.4947186 2.2295618.5653927 3.3620377.2473593 1.1324758-.2826964 1.911053-1.3428078 1.8756631-2.5089303.0353899-1.2014596-.7077974-2.261571-1.8756631-2.6502785-1.4863746-.4593816-2.7604099-.0706741-3.9282756.8834262-.1061696.0706741-.1769494.1766852-.283119.2473593zm1.8756631-5.3712311c.0353899.2826964.0353899.5653928.0707797.8127521.0707798.6360668.283119 1.2721337.6724076 1.8021894.5662379.8480891 1.7341036 1.0247743 2.5480706.4593816.1769494-.1413482.3538987-.2826964.4600683-.4593816.2123393-.3180335.3892886-.6360669.4954582-.9894373.2477291-.777415.283119-1.6255042.1769494-2.4029192-.0707798-.60072976-.2477291-1.20145955-.6016278-1.6961782-.4600683-.74207797-1.380205-1.06011139-2.2295618-.77741502-.4954582.17668523-.9201367.56539274-1.1324759 1.06011139-.3185088.67140388-.4600683 1.41348183-.4600683 2.19089683z"/><path d="m6.33478679 8.58690225v2.43825615h-3.78671613v6.6080277h4.38834393v2.4382562h-6.93641459v-19.89475707h7.00719433v2.4382562h-4.45912367v5.93662377z"/><path d="m8.52895875 8.26886883c0-.38870751 0-.77741502 0-1.13078548 0-.24735932 0-.49471865-.03538987-.77741502 0-.07067409.03538987-.17668523.10616961-.17668523 1.09708598-.53005569 2.33573141-.77741502 3.53898701-.67140388.6016278.03533705 1.1678657.14134819 1.6987138.38870751.8847468.42404455 1.5217644 1.20145957 1.7341036 2.15555982.2123393.70674093.283119 1.4488189.283119 2.19089685v6.4313424c0 .2120223.0353899.4240446.0707798.6360669.0707797.3180334.3185088.5653927.6370176.6007298.3185089.0706741.6016278.0706741.9555265.1060111v.0706741 1.8021894c0 .0706741 0 .1413481-.1061696.1766852-.6370177.1413482-1.3094252.1413482-1.9464429 0-.7785771-.1766852-1.2032556-.6007298-1.4863745-1.4488189l-.1415595.2120223c-.4600683.7067409-1.2032556 1.2367966-2.0526125 1.4488189-1.2032556.2826963-2.44190103-.1413482-3.25586805-1.0601114-.67240753-.742078-1.09708598-1.6608412-1.23864546-2.6502785-.24772909-1.2721337-.14155948-2.5796044.28311896-3.816401.31850884-1.0601114 1.09708598-1.9082005 2.12339222-2.332245 1.09708603-.45938165 2.37112133-.3533705 3.36203773.3180334.1769493.1413482.3538987.3180334.530848.4593816.0353899-.6714039 0-1.34280779-.1061696-1.97887462-.2123392-.95410025-1.0263062-1.62550413-2.0172226-1.66084118-.9201366 0-1.87566314.17668524-2.72502003.56539275zm1.13247585 7.03207217c0 .1766853 0 .4240446.03538987.6360669.03538987.5653927.17694936 1.0954484.46006833 1.5901671.3892886.6360668 1.1678657.9541002 1.8756631.7067409.4246785-.1766852.7431873-.4593816.9909164-.8480891.4954582-.8127521.7077974-1.8021894.6016278-2.7562896-.0353899-.6360669-.283119-1.2367967-.6370177-1.7668524-.3185088-.4593816-.8493569-.7067409-1.3802049-.7067409-.6724076-.035337-1.2740354.3887075-1.5217645 1.0247744-.31850879.6714038-.46006827 1.3781448-.4246784 2.1202227z"/><path d="m30.1167797 20.0714423h-2.477291v-14.17015557h2.2649517v1.3781448h.0353899l.1061696-.14134818c.5308481-.81275207 1.3448151-1.37814481 2.2649517-1.59016708 1.5217644-.31803342 3.4682073.31803341 3.8928858 2.61494142.0707797.38870751.1061696.77741502.1061696 1.16612253v10.49510278.2120222h-2.477291v-.2120222c0-3.4276935 0-6.82005 0-10.24774346 0-.35337046-.0353898-.67140388-.1061696-.98943729-.1769493-.81275207-.813967-1.02477435-1.4863745-.88342616-.4246785.10601114-.8493569.35337046-1.1324759.70674093-.6370176.70674092-1.0263062 1.59016708-1.0263062 2.54426728v8.8342616z"/><path d="m68.9394674 16.1843672 1.7694935 1.0247743c-.2123392.4240446-.4246784.8127521-.6370176 1.2014596-.566238.9541003-1.4863746 1.6608412-2.5834606 1.8728635-1.7341036.3180334-3.1143086-.2826964-4.1052249-1.7315153-.6016278-.8834262-.9909164-1.9082005-1.1324759-2.9683119-.3538987-2.0848857-.3185088-4.2051085.1769494-6.28999423.1769493-.88342615.5662379-1.69617822 1.097086-2.40291914.6724075-.91876321 1.7341036-1.4488189 2.8665795-1.4488189.9909163-.07067409 1.9464428.24735932 2.6896301.9187632.5308481.5300557.9201366 1.16612253 1.1324759 1.83752641.3185088.98943729.4954581 2.04954866.4954581 3.10966006v2.1908969.1413482h-6.2993969c.0353899.4947186.0353899.9894373.0707798 1.4841559.0353898.6007298.2123392 1.2014596.4954581 1.7315153.1769494.3533704.4246785.6714039.7785772.9187632.7785771.5653927 1.911053.4240445 2.4772909-.3533705 0 0 .0353899-.035337.0353899-.035337.2477291-.3533705.4600683-.706741.6724075-1.0601114-.0707797 0-.0353898-.0706741 0-.1413482zm-4.5299034-4.593816h3.8928858c0-.0353371 0-.0706741 0-.1060112-.0353899-.5653927-.0707798-1.1307854-.1061697-1.66084113-.0353898-.56539274-.2123392-1.13078548-.4954581-1.59016709-.1769494-.35337046-.5308481-.56539274-.9201367-.67140388-.6370176-.14134818-1.2740353.14134819-1.5925441.70674093-.6724076 1.02477434-.7077974 2.19089687-.7785772 3.32168237z"/><path d="m22.2602284 8.16285769h-1.5925441v.21202228 8.23353183c0 .2473593.0353898.4947186.0707797.7420779.0353899.3887075.3892886.706741.7785772.6714039.2477291.0353371.4954582 0 .7785771 0v.1413482 1.7315153c0 .1060111-.0707797.2120222-.1769493.2120222-.3892886.1060112-.8139671.1060112-1.2032556.0706741-.6016278-.035337-1.1678657-.2120222-1.6633239-.6007298-.566238-.4947186-.9201367-1.1661225-.9909164-1.8728634-.0707797-.3887075-.0707797-.777415-.0707797-1.2014596 0-2.7209525 0-5.4065681 0-8.12752063 0-.21202228 0-.21202228-.2477291-.21202228h-1.2740354v-2.26157096h1.4863746v-1.9082005c0-.10601114 0-.17668523.1061696-.21202228.7431873-.24735932 1.4863746-.4593816 2.2295618-.70674092h.1061696v2.8269637h1.6279341v2.26157096z"/><path d="m72.0183861.17668523h2.4419011v19.89475707h-2.4419011z"/><path d="m76.1943908.17668523h2.4419011v19.89475707h-2.4419011z"/><path d="m25.940775 20.0714423h-2.4419011v-14.17015557h2.4419011z"/><path d="m26.1177243 3.78106395c0 .77741502-.6370177 1.41348185-1.4155948 1.41348185s-1.4155948-.63606683-1.4155948-1.41348185.6370177-1.41348185 1.4155948-1.41348185 1.4155948.63606683 1.4155948 1.41348185z"/></g><g transform="translate(396.149313 22.731536)"><path d="m150.654678 13.6427671h-11.147809c-.07078 0-.10617 0-.212339-.035337v-13.46341465c.106169 0 .212339-.03533705.318508-.03533705h10.864691.176949v2.75628961h-7.856551v2.08488573h4.494513v2.82696371h-4.494513v3.03898595h6.901025c.318508 0 .637017 0 .955526.0353371z"/><path d="m92.2967818 7.03473948v6.57269062h-3.3266478v-13.46341465h1.8402733c.4246784 0 .9555265-.10601114 1.2740353.07067409.3185089.17668523.3892886.60072979.6016278.91876321l3.3620377 5.93662377c.0707797.10601114.1061696.17668523.1769494.31803342l.3538987-.60072979c1.2032556-2.12022278 2.441901-4.24044555 3.6451568-6.39600538.106169-.21202227.318509-.31803341.530848-.28269637h2.937359v13.4987517h-3.362038v-6.64336472l-.106169-.03533704c-1.3448153 2.22623391-2.6896303 4.41713076-4.0698353 6.71403876l-3.7867161-6.64336467z"/><path d="m0 .1793525h.28311896 7.07797407c1.16786572-.03533705 2.33573144.24735932 3.36203767.81275206 1.8048834.95410025 2.4772909 3.18033417 1.5571543 4.98252353-.0707797.10601114-.1415595.21202227-.2123392.31803341-.2123392.31803342-.4600683.63606684-.7431873.91876321s-.6016278.53005569-.9555265.77741501l2.72502 5.72460148c-1.2032556 0-2.3711213 0-3.50359714 0-.10616961 0-.21233922-.1413482-.28311896-.2473593-.74318728-1.519493-1.52176443-3.038986-2.22956183-4.55847897-.07077974-.21202228-.31850883-.35337046-.53084806-.31803342-.99091637.03533705-2.01722261 0-3.04352885 0v5.08853469h-3.46820729zm3.43281742 5.51257922h3.50359717c.17694935 0 .3538987 0 .53084805-.03533705.38928858-.07067409.77857715-.17668523 1.16786572-.31803342.56623793-.17668523.84935689-.77741501.67240754-1.34280776-.14155948-.53005569-.67240754-.95410024-1.52176443-.98943729-1.41559481-.07067409-2.86657949-.03533705-4.28217431-.03533705 0 0-.03538987.03533705-.07077974.03533705z"/><path d="m15.9608315.1793525h11.8202167v2.75628961h-8.3520094v2.08488573h4.5299034v2.79162665h-4.5299034v3.03898601h8.5643486v2.7916266h-12.0325559z"/><path d="m112.185889 8.55423247v5.05319763h-3.432817v-13.46341465h.212339 7.502652c1.344815-.03533705 2.654241.38870751 3.751327 1.16612253 2.61885 2.08488573 1.627934 5.97196082-1.840274 6.89072402-.743187.17668523-1.521764.28269637-2.300341.31803342-1.274036.07067409-2.583461.03533705-3.892886.03533705zm-.03539-2.86230075c.07078 0 .14156.03533704.247729.03533704h3.928276c.283119 0 .530848-.03533704.813967-.10601114.955526-.21202227 1.380205-.84808911 1.167866-1.59016708-.14156-.56539274-.778578-.98943729-1.663324-.98943729-1.486375-.03533705-2.93736 0-4.388344 0-.03539 0-.03539 0-.07078.03533704z"/><path d="m46.0776112 13.6427671c-1.1678657 0-2.3003416 0-3.3974276 0-.0707797 0-.2123392-.1413482-.2477291-.2120222-.4600683-.8480892-.8847467-1.6961783-1.3094252-2.5089303-.0707797-.1766853-.2831189-.2826964-.4600683-.2826964-1.8402732 0-3.6805465 0-5.5208198 0-.2123392-.0353371-.3892885.0706741-.4600683.2826964-.4246784.8480891-.8847467 1.6961782-1.3094252 2.5089303-.0707797.1060111-.1769493.1766852-.2831189.2120222-1.1324759 0-2.2295619 0-3.3974276 0 .283119-.5653927.5662379-1.1307855.8493569-1.6608411 1.9464429-3.85173809 3.8928857-7.66813909 5.8747185-11.51987713.0707797-.21202228.3185088-.35337047.530848-.31803342.7077974.03533705 1.4155948 0 2.1233923 0 .1769493-.03533705.3538987.07067409.4246784.21202228 2.194172 4.34645669 4.3529541 8.72825043 6.547126 13.07470717 0 .070674.0353899.1413481.0353899.2120222zm-6.4763463-5.83061261-1.6987138-3.32168235-1.6633239 3.32168235z"/><path d="m76.7960186 2.61760869-2.5126808 1.76685231c-.2831189-.21202227-.5662379-.38870751-.8493568-.60072978-.9909164-.74207797-2.2295619-1.06011139-3.4682073-.91876321-.3538987.03533705-.7431873.14134819-1.0616961.28269637-.7077975.35337047-.6724076 1.13078549.0353898 1.4488189.3892886.14134819.7785772.28269637 1.1678657.35337046 1.2740354.31803342 2.5834606.63606684 3.8574959.9894373 1.5571543.42404456 2.6896302 1.80218936 2.7957998 3.21567121.1415595 2.19089685-1.5925442 3.99308625-4.3175642 4.45246785-2.7957998.4593816-5.3084806-.1060112-7.361093-1.8021894-.4954582-.3887075-1.0263063-.7420779-1.5925442-1.1661225l2.8311896-1.59016709c.5662379.45938161 1.097086.91876321 1.6633239 1.30747069 1.380205.8480891 3.0789187.9541003 4.5652933.3180334.3538987-.1413481.6370177-.4240445.813967-.77741498.2123392-.53005569 0-1.02477434-.6370176-1.30747071-.6016278-.21202228-1.2032556-.42404455-1.8402733-.56539274-.9201366-.24735932-1.911053-.38870751-2.7957998-.70674092-2.0172226-.63606684-2.9727491-1.87286346-2.9373592-3.53370463.0353899-1.59016709 1.2386455-2.93297484 3.1496985-3.46303054 2.2295618-.63606683 4.6714628-.31803342 6.6532956.88342616.6016278.42404455 1.2386454.88342616 1.8402732 1.41348185z"/><path d="m48.4487325.1793525h3.3974275v10.707125h8.5997385v2.7562896h-12.0325559z"/><path d="m136.781849 10.8864775v2.7562896h-12.032556v-13.4634146h3.432817v10.707125z"/><path d="m84.1217218 13.6427671h-3.3620377v-13.4634146h3.3620377z"/></g><g transform="translate(.879851 25.799692)"><path d="m3.99905535 0h1.3094252l3.99905535 10.5304398h-1.34481507l-.9555265-2.57960439h-4.70685276l-.9555265 2.57960439h-1.34481507zm2.58346053 6.85538698-1.94644287-5.30055694h-.03538987l-1.91105299 5.30055694z"/><path d="m10.1568928 9.61167659.6016278-.9187632c.5662379.60072978 1.3802049.9187632 2.2295618.88342615.8847468 0 1.380205-.42404455 1.380205-.98943729 0-.63606684-.6724076-.81275207-1.7341037-1.20145958-1.1678657-.42404455-2.1587821-.88342615-2.1587821-2.22623391 0-1.13078548 1.0263063-1.94353755 2.3711213-1.94353755.9201367 0 1.8048834.31803342 2.5126808.88342616l-.6370176.95410025c-.4954582-.49471865-1.2032556-.77741502-1.911053-.77741502-.566238 0-1.1324759.31803342-1.1324759.88342616s.5662379.84808911 1.380205 1.13078548c1.5217644.60072979 2.5480706.84808911 2.5126807 2.26157096 0 1.13078548-.8493568 2.0495487-2.5834605 2.0495487-1.0263062.0706741-2.0526125-.3180334-2.8311896-.98943731z"/><path d="m20.7030741 9.61167659.6016278-.9187632c.566238.60072978 1.380205.9187632 2.194172.88342615.8847468 0 1.3802049-.42404455 1.3802049-.98943729 0-.63606684-.6724075-.81275207-1.7341036-1.20145958-1.1678657-.42404455-2.1587821-.88342615-2.1587821-2.22623391 0-1.13078548.9909164-1.94353755 2.3711213-1.94353755.9201367 0 1.7694935.31803342 2.4772909.88342616l-.6370176.95410025c-.5308481-.49471865-1.2032556-.77741502-1.911053-.77741502-.5662379 0-1.1324759.31803342-1.1324759.88342616s.566238.84808911 1.380205 1.13078548c1.5217644.60072979 2.5480706.84808911 2.5126808 2.26157096 0 1.13078548-.8493569 2.0495487-2.5834606 2.0495487-.9909163.035337-1.9818327-.3180334-2.7604099-.98943731z"/><path d="m34.2573945 7.31476858h-5.6623793c.0707798 1.30747071 1.1678658 2.29690801 2.477291 2.22623392.813967.03533704 1.5925441-.31803342 2.0880023-.95410025l.8493569.70674092c-.6370177.81275203-1.5217644 1.34280773-2.9727491 1.34280773-2.1233922 0-3.6451567-1.48415591-3.6451567-3.67505278s1.4863746-3.71038986 3.5743769-3.71038986c1.9818328 0 3.3266479 1.51949299 3.3266479 3.56904167-.0353899.17668523-.0353899.38870751-.0353899.49471865zm-5.6269894-.9894373h4.4237338c-.1769494-1.20145957-.9555265-1.97887459-2.1233922-1.97887459-1.1324759-.03533704-2.1587821.81275207-2.3003416 1.97887459z"/><path d="m42.4324545 7.31476858h-5.6623792c.0707797 1.30747071 1.1678657 2.29690801 2.4772909 2.22623392.813967.03533704 1.5925442-.31803342 2.0880024-.95410025l.8493568.70674092c-.6370176.81275203-1.5217644 1.34280773-2.9727491 1.34280773-2.1587821 0-3.6451566-1.48415591-3.6451566-3.67505278s1.4863745-3.71038986 3.5743769-3.71038986c1.9818327 0 3.3266478 1.51949299 3.3266478 3.56904167 0 .17668523-.0353899.38870751-.0353899.49471865zm-5.6269893-.9894373h4.4591236c-.1769493-1.20145957-.9555265-1.97887459-2.1587821-1.97887459-1.1324758-.03533704-2.1233922.81275207-2.3003415 1.97887459z"/><path d="m44.2373379 3.32168235h1.2032556v1.30747071c.5662379-.88342615 1.5571543-1.41348185 2.6188504-1.3781448 1.5571543 0 2.6188504.95410025 2.6188504 3.03898598v4.27578256h-1.2032556v-3.95774914c0-1.69617823-.7431872-2.26157097-1.7694935-2.26157097-1.3802049 0-2.2649517.9894373-2.2649517 2.61494143v3.60437868h-1.2032556z"/><path d="m56.3760635 6.92606107c.0707797-2.04954868 1.8048833-3.67505281 3.8574958-3.60437872 1.9818328.07067409 3.5743769 1.66084118 3.6097668 3.60437872 0 2.19089687-1.5925442 3.67505283-3.7159364 3.67505283-1.9818327.0706741-3.6451566-1.44881891-3.7513262-3.4276935 0-.0706741 0-.14134819 0-.24735933zm6.2286171 0c.0707798-1.3781448-.9555265-2.54426733-2.3357314-2.61494142-.0707798 0-.1061696 0-.1769494 0-1.5217644 0-2.5126808 1.16612252-2.5126808 2.61494142-.0353898 1.37814481 1.0263063 2.54426733 2.4065112 2.57960438 1.380205.03533705 2.5480707-1.02477434 2.5834606-2.40291915.0707797-.03533704.0707797-.10601114.0353898-.17668523z"/><path d="m65.6482095 3.32168235h1.2032556v1.30747071c.5662379-.88342615 1.5571543-1.41348185 2.6188504-1.3781448 1.5571543 0 2.6188504.95410025 2.6188504 3.03898598v4.27578256h-1.2032556v-3.95774914c0-1.69617823-.7431873-2.26157097-1.7694935-2.26157097-1.380205 0-2.2649517.9894373-2.2649517 2.61494143v3.60437868h-1.2032556z"/><path d="m73.9294391 9.78836182c0-.49471865.3892886-.88342616.8847468-.88342616s.8847468.38870751.8847468.88342616c0 .49471868-.3892886.88342618-.8847468.88342618-.4600683 0-.8493569-.3887075-.8847468-.88342618z"/><path d="m77.4684262 9.78836182c0-.49471865.3892885-.88342616.8847467-.88342616s.8847468.38870751.8847468.88342616c0 .49471868-.3892886.88342618-.8847468.88342618s-.8847467-.3887075-.8847467-.88342618z"/><path d="m80.9720233 9.78836182c0-.49471865.3892886-.88342616.8847468-.88342616s.8847468.38870751.8847468.88342616c0 .49471868-.3892886.88342618-.8847468.88342618s-.8847468-.3887075-.8847468-.88342618z"/></g></g></svg>