<svg enable-background="new 0 0 277 77" viewBox="0 0 277 77" xmlns="http://www.w3.org/2000/svg"><g fill="#9b9b9b"><g transform="translate(32 25)"><path d="m13.3.1h-3.6c-5.3-.1-9.6 4-9.7 9.1s4.1 9.3 9.4 9.4h.3 6.7c1.7 0 3-1.3 3-2.9v-5.7l4.6 7.1c1.1 1.6 3.2 2 4.8 1 1-.6 1.6-1.7 1.6-2.8v-5.3l4.6 7.1c1.1 1.6 3.2 2 4.8 1 1-.6 1.6-1.7 1.6-2.8v-15.2h-2.4v15.1c0 .6-.5 1.1-1.1 1.1-.4 0-.7-.2-.9-.5l-8.2-12.5c-.1-.2-.4-.3-.6-.1-.1 0-.2.2-.2.3v11.7c0 .6-.5 1.1-1.1 1.1-.4 0-.7-.2-.9-.5l-8.3-12.5c-.1-.2-.4-.3-.6-.1-.1 0-.1.2-.1.3v12.2c0 .4-.3.7-.7.7h-6.7c-4 .1-7.2-3-7.3-6.8s3.1-7 7-7.1h.3 3.6z"/><path d="m13.4 13.4c.2 0 .3-.2.3-.3v-9.6c0-1.9 1.6-3.4 3.5-3.4 1.2 0 2.3.6 2.9 1.5l4.6 7.1v-5.2c0-1.9 1.6-3.4 3.5-3.4 1.2 0 2.3.6 2.9 1.5l4.6 7.1v-8.6h2.4v15.2c0 .2-.2.4-.4.4-.1 0-.3-.1-.3-.2l-8.3-12.6c-.3-.5-1-.6-1.6-.3-.3.2-.5.5-.5.9v11.8c0 .2-.2.4-.4.4-.1 0-.3-.1-.3-.2l-8.2-12.6c-.3-.5-1-.6-1.6-.3-.3.2-.5.5-.5.9v11.9c0 .2-.2.3-.3.3h-6.2c-3.6-.1-6.3-3.2-6.1-6.7.2-3.2 2.8-5.8 6.1-6h3.5v2.3h-3.5c-2.3.1-4 1.9-4 4.1.1 2.1 1.8 3.8 4 3.9z"/></g><g transform="translate(102 26)"><path d="m30.9 14.5c-.1.3-.2.7-.4 1-.5 1.1-1.6 1.8-2.8 1.8-3.5 0-7 0-10.5 0-.1 0-.1 0-.2 0l1.5-1c2.4-1.6 4.9-3.2 7.3-4.8 1.5-1 3.5-.6 4.5.8.1.1.1.2.2.3.2.4.3.7.4 1.1z"/><path d="m13.5 14.8-.9-2c-1.2-2.7-2.4-5.5-3.6-8.2-.8-1.6-.1-3.5 1.5-4.3.3-.1.7-.2 1-.3 2-.3 3.8 1.4 3.6 3.4-.2 1.5-.4 2.9-.6 4.4-.3 2.1-.6 4.1-.9 6.2 0 .2-.1.5-.1.8z"/><path d="m17.5 16.1.7-1.5 3.8-8.5c.7-1.6 2.6-2.4 4.3-1.7 1.6.7 2.4 2.6 1.7 4.2-.2.6-.7 1.1-1.2 1.4-1.9 1.3-3.8 2.5-5.6 3.8z"/><path d="m13.4 16.2-2.2-1.5-7-4.7c-1.2-.7-1.7-1.9-1.5-3.2s1.2-2.3 2.6-2.5c1.5-.3 3 .4 3.6 1.8 1.4 3 2.7 6 4 9z"/><path d="m17.1 3.7-1.3-.1c-.1-.9.2-1.8.8-2.5.9-1 2.3-1.3 3.6-.9s2.1 1.6 2.1 2.9c0 .5-.1 1-.3 1.4-1.5 3.4-3 6.7-4.5 10.1 0 .1-.1.1-.1.2-.1-.4-.1-.7-.2-1-.4-2.8-.8-5.5-1.2-8.3 0-.2 0-.3 0-.5 0-.4.2-.7.5-.9.2-.1.4-.2.6-.3z"/><path d="m13.9 17.3h-.9c-3.2 0-6.4 0-9.7 0-1.8 0-3.3-1.4-3.3-3.1s1.4-3.2 3.2-3.3c.7 0 1.4.2 1.9.6l8.5 5.7c.1-.1.2 0 .3.1z"/><path d="m70.1 17.7c-.6-.1-1.1-.2-1.7-.4-2.8-.9-4.7-2.7-5.3-5.6-.7-3.2.9-6.4 3.9-7.9 2-1 4.1-1.2 6.2-.5.2 0 .4.2.3.4v2.5c-1.3-.8-2.8-1-4.3-.5-1 .3-1.9 1-2.5 1.9-1.2 1.8-1 4.2.5 5.8 1.4 1.5 3.9 2.2 6.3.8v.3 2.2c0 .2-.1.3-.3.4l-1.8.4z"/><path d="m51.8 3.4c.1 0 .1 0 0 0 2.2 0 4.3-.1 6.4.1 2 .1 3.5 1.8 3.3 3.8 0 .3-.1.6-.2.8-.2.6-.6 1.1-1.1 1.5l-.2.3c.2.1.4.2.6.4 1.4.8 2.1 2.5 1.7 4.1s-1.7 2.8-3.3 3c-.5.1-1 0-1.5 0-1.8 0-3.7 0-5.5 0zm3 11.7c1 0 1.9.1 2.8 0 1-.1 1.8-.9 1.8-1.9s-.6-1.9-1.6-2-2-.1-3 0zm0-6.1h2.4c.8 0 1.5-.8 1.5-1.6.1-.8-.5-1.7-1.4-1.8s-1.7-.1-2.6 0v3.4z"/><path d="m47.2 11.1v-7.7h2.9v14.1c-3-2.7-5.9-5.3-8.9-8.1v7.7h-2.9v-14z"/></g><g transform="translate(201 24)"><path d="m16.7 13.6c.9.3 1.8.6 2.8.8.6.2 1.5.1 1.2 1.1-.3.9-.8 1.4-1.8 1l-4.1-1.5c-.3 1-.5 2.1-.8 3.1-.2.7-.5 1.3-1.4 1.1-1-.2-.8-.9-.7-1.5.2-.9.4-1.7.6-2.7-1.3.2-2.3.4-3 1.6-.6 1-1.3 1.8-2.2 2.4-3 2-6.3.6-6.9-2.9-.8-4.2 1.7-9.3 5.6-11.2 1-.5 2.2-.7 3.3-.6 1.7.2 2.5 1.5 2.1 3.2-.2.8-.6 1.2-1.4 1-.7-.1-1.1-.4-1-1.3 0-.4 0-.7 0-1.1-.5.2-.9.4-1.4.6-3.1 1.6-5.3 5.5-4.9 9 .1 1 .4 2 1.6 2.3 1 .2 2.1-.4 3.2-1.8h-1.2c-1.6 0-2.4-.8-2.1-2.4.4-2.1 2.5-3.9 4.4-3.6 1.7.2 2.2.8 2.4 3 1.5-.1 2.5-.6 2.7-2.3.3-1.5.9-2.9 1.4-4.4.4-1.1 1.2-1.7 2.4-1.7 1.7 0 3 .8 3.9 2.2.7 1 .3 2.1-.4 2.9-1.3 1.2-2.8 2.4-4.3 3.7zm-.9-2.6.6.4c.9-1 2-1.9 2.8-2.9.5-.6.3-1.4-.4-1.6-.4-.1-1.3.1-1.5.5-.6 1.1-1 2.4-1.5 3.6zm-9.6 2.7.3.5c.7-.2 1.5-.3 2-.7.3-.2 0-1 0-1.5l-.5-.2z"/><path d="m63 4.8c-.6.4-1.3.7-1.9 1.2-1 .8-1.5.4-2-.5-.7-1.3-1.3-1.5-2.8-1-1.5.6-2.3 1.9-1.7 3.1s1.4 2.3 2.2 3.3c2.1 2.8 2 3.7-1.3 4.9-.8.3-1.7.6-2.6.8s-1.8-.1-2-1.1c-.2-1.1.7-1.1 1.5-1.3 1.1-.3 2.2-.5 3.7-.9-.9-1.2-1.7-2-2.2-2.9-.7-1.3-1.4-2.6-1.6-4-.3-1.9 1-3.2 2.7-3.9 1.7-.8 3.5-1.2 5.3-.1.5.3 1.1.4 1.7.3 3-.6 6-1.5 9.1-2.2.5-.1 1.6 0 1.7.3.3 1-.4 1.4-1.3 1.7-1.1.3-2.2.6-3.4.9s-2 1-2.4 2.1c-1.1 3.5-2.2 6.9-3.3 10.3-.2.6-.2 1.4-1.2 1.3s-1.1-.9-.9-1.6c.8-3.1 1.6-6.1 2.5-9.2.1-.4.3-.8.4-1.2z"/><path d="m36.4 13.6c-1.8.2-3.2.6-3.8 2.4-.2.4-1.1.8-1.6.7-.8-.1-.6-.9-.4-1.5 1.3-3.5 2.5-7 4-10.5.4-.9 1.6-1.6 2.5-2.2.6-.4 1.6.5 1.6 1.6.1 1.7-.1 3.4.1 5.2.1.9.8 1.9.7 2.7s-1.1 1.4-.9 2.5c.1.6 0 1.3-.1 2-.1.6-.2 1.3-1.2 1.2-.8-.1-1.1-.6-1-1.4.1-.9.1-1.8.1-2.7zm.1-7.2-.3-.1c-.7 1.7-1.3 3.5-2 5.3l.3.3c.7-.3 1.8-.5 1.9-.9.2-1.5.1-3.1.1-4.6z"/><path d="m25.6 10c1.1-.4 2-.7 2.9-1 .6-.2 1.3-.5 1.6.4s-.1 1.4-1 1.7c-1 .3-1.9.6-2.8 1-1.6.6-2.2 1.9-1.8 3.8.8-.2 1.6-.5 2.5-.7.5-.1 1-.3 1.5-.2.4.1.7.4.8.8.1.2-.2.8-.5.9-1.4.5-2.9 1.1-4.4 1.3-2 .4-2.9-.6-2.5-2.7.5-2.4 1.1-4.8 1.6-7.1.1-.5 0-1-.2-1.5-.3-.8-.4-1.5.6-1.8 2.1-.4 4.1-.9 6.1-1.1.4-.1.9.8 1.4 1.3-.4.3-.7.6-1.1.8-.4.1-.9.1-1.3.1-2.9.6-2.9.6-3.4 4z"/><path d="m43.8 5.6c-.8.1-1.5.4-2 .3s-.9-.5-1.3-.7c.3-.5.5-1.2.8-1.2 2.9-.5 5.8-.8 8.8-1.1.4 0 1.2.6 1.3 1.1.2.9-.6 1.2-1.3 1.2-3.3.2-3.3.2-4.3 3.5-.8 2.6-1.6 5.2-2.5 7.8-.2.8-.6 1.4-1.6 1.1-1.1-.3-.8-1-.6-1.8.9-2.8 1.7-5.7 2.5-8.6.1-.6.2-1.1.2-1.6z"/><path d="m47.6 16.7c-1-.1-1.6-.2-1.3-1.2.7-2.5 1.3-5 2-7.5.2-.7.5-1 1.2-.8.8.2 1.2.7 1 1.5-.4 1.7-.9 3.4-1.4 5.1-.2.7-.4 1.4-.7 2.1-.2.4-.7.6-.8.8z"/></g><g transform="translate(241 46)"><path d="m19.2 0c1 .2 2.1.3 3.1.6 7.5 2 12.9 9 13.1 16.8v.6c-.1 0-.2 0-.3 0-1.4 0-2.8 0-4.2 0-.2-4.7-2-8.5-5.9-11.1-2.5-1.8-5.5-2.5-8.6-2.2-6.5.7-11.7 6.4-11.8 13.4-1.3 0-2.6 0-3.9 0-.2 0-.5 0-.8-.1v-.1c0-.2.1-.3.1-.5.3-8.1 5.9-15 13.7-16.9.8-.2 1.7-.3 2.5-.5z"/><path d="m29.6 18h-4.6c-.1-2.4-1-4.4-2.9-5.9-1.3-1-2.9-1.5-4.5-1.5-1.9 0-3.7.8-5 2.2-1.4 1.4-2 3.1-2.1 5.1h-4.6c.1-4.1 1.7-7.4 5-9.8 3.8-2.8 9-3 13-.4 3.7 2.4 5.6 5.9 5.7 10.3z"/><path d="m11.9 18c.1-2.2 1-3.9 2.8-5.1 2-1.3 4.2-1.3 6.2 0 1.8 1.1 2.7 2.9 2.8 5.1z"/><path d="m15 20.4c1.2 0 2.5-.1 3.7 0 2 .2 3.1 1.7 3.1 3.7 0 1.9-1.4 3.3-3.3 3.4-1.1.1-2.2 0-3.4 0v-7.1zm1.8 5.4c1 0 2.1.2 2.7-.9.4-.7.4-1.5-.1-2.2-.7-.9-1.6-.7-2.6-.7z"/><path d="m6.3 24c0-2.2 1.6-3.7 3.8-3.7s3.8 1.5 3.8 3.7-1.6 3.7-3.7 3.7c-2.3 0-3.9-1.6-3.9-3.7zm1.9 0c0 1.2.8 2 1.9 2s1.8-.9 1.8-2-.8-2-1.9-2-1.8.8-1.8 2z"/><path d="m29.5 27.5c-.5 0-.9 0-1.2 0-.6 0-1 0-1.2-.7 0-.1-.3-.2-.4-.3-.5 0-.9 0-1.4 0-.6 0-1.1 0-1.2.8 0 .1-.2.2-.3.2-.6 0-1.2 0-1.9 0 .1-.2.1-.4.2-.6.8-2.1 1.5-4.1 2.3-6.1.1-.4.3-.5.7-.5.6 0 1.3-.2 1.8.1.4.3.5 1.1.7 1.6.5 1.9 1.1 3.7 1.9 5.5zm-3.1-2.7c-.3-.8-.5-1.5-.8-2.4-.3.9-.5 1.6-.8 2.4z"/><path d="m28.7 20.4s.1 0 0 0c2-.1 2-.1 3 1.5l.6 1c.4-.8.8-1.5 1.3-2.2.1-.2.4-.3.6-.4h1.7c-.5.7-.8 1.4-1.3 2-1.1 1.4-1.7 2.9-1.4 4.8v.4h-1.9c0-.5 0-1.1 0-1.6.1-.8-.2-1.6-.7-2.3-.7-1-1.3-2-1.9-3.1 0 0 0 0 0-.1z"/><path d="m.1 22.1v-1.7h5.7v1.6h-1.9v5.5h-1.9v-5.4z"/></g><g transform="translate(0 62)"><path d="m128.6 11.7h-9.5c-.1 0-.1 0-.2 0v-11.6h.3 9.3.2v2.4h-6.7v1.8h3.8v2.4h-3.8v2.6h5.9.8v2.4z"/><path d="m78.8 6v5.6h-2.8v-11.5h1.6c.4 0 .8-.1 1.1.1s.3.5.5.8l2.8 5c.1.1.1.2.2.3l.3-.5c1-1.8 2.1-3.6 3.1-5.5.1-.2.3-.3.5-.2h2.5v11.6h-2.9v-5.7h-.1c-1.1 1.9-2.3 3.8-3.5 5.7z"/><path d="m0 .2h.2 6c1 0 2 .2 2.9.7 1.5.8 2.1 2.7 1.3 4.3-.1.1-.1.2-.2.3-.2.3-.4.5-.6.8s-.4.3-.7.5l2.3 4.9c-1 0-2 0-3 0-.1 0-.2-.1-.2-.2-.7-1.3-1.4-2.6-2-3.9 0-.2-.2-.3-.4-.3-.8 0-1.7 0-2.6 0v4.4h-3zm2.9 4.7h3 .5c.3-.1.7-.2 1-.3.5-.2.7-.7.6-1.1-.2-.5-.6-.9-1.4-.9-1.2-.1-2.4 0-3.7 0 0 0 0 0-.1 0v2.3z"/><path d="m13.6.2h10.1v2.3h-7.1v1.8h3.9v2.4h-3.9v2.6h7.3v2.4h-10.3z"/><path d="m95.8 7.3v4.3h-2.9v-11.5h.2 6.4c1.1 0 2.3.3 3.2 1 2.2 1.8 1.4 5.1-1.6 5.9-.6.2-1.3.2-2 .3-1.1 0-2.2 0-3.3 0zm-.1-2.4h.2 3.4c.2 0 .5 0 .7-.1.8-.2 1.2-.7 1-1.4-.1-.5-.7-.8-1.4-.8-1.3 0-2.5 0-3.7 0 0 0 0 0-.1 0z"/><path d="m39.3 11.7c-1 0-2 0-2.9 0-.1 0-.2-.1-.2-.2-.4-.7-.8-1.5-1.1-2.1-.1-.2-.2-.2-.4-.2-1.6 0-3.1 0-4.7 0-.2 0-.3.1-.4.2-.4.7-.8 1.5-1.1 2.1-.1.1-.2.2-.2.2-1 0-1.9 0-2.9 0 .2-.5.5-1 .7-1.4 1.7-3.3 3.3-6.6 5-9.9.1-.2.3-.3.5-.3h1.8c.2 0 .3.1.4.2 1.9 3.7 3.7 7.5 5.6 11.2-.1.1-.1.1-.1.2zm-5.5-5-1.4-2.8-1.4 2.8z"/><path d="m65.6 2.2-2.1 1.5c-.2-.2-.5-.3-.7-.5-.8-.6-1.9-.9-3-.8-.3 0-.6.1-.9.2-.6.3-.6 1 0 1.2.3.1.7.2 1 .3 1.1.3 2.2.5 3.3.8 1.3.4 2.3 1.5 2.4 2.8.1 1.9-1.4 3.4-3.7 3.8-2.4.4-4.5-.1-6.3-1.5-.4-.3-.9-.6-1.4-1l2.4-1.4c.5.4.9.8 1.4 1.1 1.2.7 2.6.8 3.9.3.3-.1.5-.4.7-.7.2-.5 0-.9-.5-1.1s-1-.4-1.6-.5c-.8-.2-1.6-.3-2.4-.6-1.7-.5-2.5-1.6-2.5-3s1.1-2.5 2.7-3c1.9-.4 4-.1 5.7.9.5.4 1 .8 1.6 1.2z"/><path d="m41.4.2h2.9v9.1h7.3v2.4h-10.3z"/><path d="m116.8 9.3v2.4h-10.3v-11.5h2.9v9.1z"/><path d="m71.8 11.7h-2.9v-11.5h2.9z"/></g><g transform="translate(150 56)"><path d="m39.2.2h.2 1.8c.1 0 .2 0 .2.2.7 3.3 1.4 6.6 2.1 10 .1.3.1.6.2.9.7-3.7 1.3-7.4 2-11.1h.9.6c.1 0 .2 0 .2.2.3 1.6.5 3.1.8 4.7.3 1.8.7 3.7 1 5.5.1.3.1.5.2.8 0-.1 0-.1 0-.2.5-2.3 1-4.7 1.4-7 .3-1.3.5-2.5.8-3.7 0-.1 0-.1.1-.1h2 .1c-1.3 5.7-2.6 11.4-3.9 17.1h-1.3c-.7-3.9-1.4-7.7-2.1-11.6l-.1.6-1.1 6.1c-.3 1.6-.6 3.2-.9 4.8 0 .1-.1.1-.2.1-.4 0-.8 0-1.1 0-1.3-5.9-2.6-11.6-3.9-17.3z"/><path d="m32.3 13.9c.4-.4.8-.8 1.3-1-.2-.2-.4-.3-.5-.5-.5-.6-.9-1.3-1.1-2.1-.2-1.1-.2-2.3.2-3.3.5-1.4 1.5-2.1 3-2.2.7-.1 1.3 0 2 .1.8.1 1.6.1 2.4-.1h.1l.4 1.5c-.5.1-.9.2-1.4.2l.2.2c.5.6.7 1.3.8 2 .2.9.1 1.8-.3 2.7-.3.6-.7 1.1-1.3 1.5l-.1.1.2.1c2 .8 3 3.2 2.1 5.2-.1.3-.3.6-.5.8-.6.7-1.4 1.2-2.3 1.4-2 .5-4 .1-5.6-1.2-.1 0-.1-.1-.1-.1l-.2-.2 1.2-1.3c.4.4.8.6 1.3.8.9.4 1.9.5 2.9.2 1-.2 1.6-1.1 1.6-2.1s-.6-1.9-1.6-2.3c-1.3-.4-2.4-.1-3.3.8-.1.1-.2.2-.2.2zm1.6-4.5c0 .2 0 .5.1.7.1.5.2 1.1.6 1.5.5.7 1.5.9 2.2.4.2-.1.3-.2.4-.4.2-.3.3-.5.4-.8.2-.7.2-1.4.2-2-.1-.5-.2-1-.5-1.4-.4-.6-1.2-.9-1.9-.7-.4.2-.8.5-1 .9-.4.5-.5 1.1-.5 1.8z"/><path d="m5.4 7.3v2.1h-3.2v5.6h3.7v2.1h-5.9v-16.9h6v2h-3.8v5.1z"/><path d="m7.3 7c0-.3 0-.7 0-1 0-.2 0-.4 0-.7 0-.1 0-.2.1-.2.9-.5 2-.7 3-.6.5 0 1 .1 1.4.3.8.4 1.3 1 1.5 1.8.2.6.2 1.2.2 1.9v5.5c0 .2 0 .4.1.5.1.3.3.5.5.5.3.1.5.1.8.1v.1 1.5c0 .1 0 .1-.1.2-.5.1-1.1.1-1.7 0-.7-.2-1-.5-1.3-1.2v.3c-.4.6-1 1.1-1.7 1.2-1 .2-2.1-.1-2.8-.9-.6-.6-.9-1.4-1.1-2.3-.2-1-.1-2.1.3-3.1.3-.9.9-1.6 1.8-2s2-.3 2.9.3c.2.1.3.3.5.4 0-.6 0-1.1-.1-1.7-.3-.9-1-1.4-1.8-1.5-.8 0-1.6.2-2.4.5zm.9 6v.5c0 .5.2.9.4 1.4.3.5 1 .8 1.6.6.4-.2.6-.4.8-.7.4-.7.6-1.5.5-2.3 0-.5-.2-1.1-.5-1.5s-.7-.6-1.2-.6c-.6 0-1.1.3-1.3.9-.2.5-.3 1.1-.3 1.7z"/><path d="m25.7 17.1h-2.1v-12.1h1.9v1.2l.1-.1c.5-.7 1.1-1.2 1.9-1.4 1.3-.3 3 .3 3.3 2.2.1.3.1.7.1 1v8.9.2h-2.1v-.2c0-2.9 0-5.8 0-8.7 0-.3 0-.6-.1-.8-.2-.7-.7-.9-1.3-.8-.4.1-.7.3-1 .6-.5.6-.9 1.4-.9 2.2v7.5z"/><path d="m58.7 13.8 1.5.9c-.2.4-.4.7-.5 1-.5.8-1.3 1.4-2.2 1.6-1.5.2-2.7-.3-3.5-1.5-.5-.8-.8-1.6-1-2.5-.3-1.8-.3-3.6.2-5.4.2-.8.5-1.4.9-2 .6-.8 1.5-1.2 2.4-1.2.8-.1 1.7.2 2.3.8.5.5.8 1 1 1.6.3.8.4 1.7.4 2.6v1.9.1h-5.4c0 .4 0 .8.1 1.3 0 .5.2 1 .4 1.5.2.3.4.6.7.8.7.5 1.6.4 2.1-.3.2-.3.4-.6.6-.9 0-.2 0-.3 0-.3zm-3.8-3.9h3.3v-.1c0-.5-.1-1-.1-1.4 0-.5-.2-1-.4-1.4-.2-.3-.5-.5-.8-.6-.5-.1-1.1.1-1.4.6-.5.9-.6 1.9-.6 2.9z"/><path d="m19 6.9h-1.4v.2 7c0 .2 0 .4.1.6 0 .3.3.6.7.6h.7v.1 1.5c0 .1-.1.2-.2.2-.3.1-.7.1-1 .1-.5 0-1-.2-1.4-.5-.5-.4-.8-1-.8-1.6-.1-.3-.1-.7-.1-1 0-2.3 0-4.6 0-6.9 0-.2 0-.2-.2-.2h-1.1v-2h1.3v-1.6c0-.1 0-.2.1-.2.6-.2 1.3-.4 1.9-.6h.1v2.4h1.4z"/><path d="m61.3.2h2.1v16.9h-2.1z"/><path d="m64.9.2h2.1v16.9h-2.1z"/><path d="m22.1 17.1h-2.1v-12.1h2.1z"/><path d="m22.2 3.2c0 .7-.5 1.2-1.2 1.2s-1.2-.5-1.2-1.2.6-1.2 1.2-1.2c.7 0 1.2.6 1.2 1.2z"/></g></g><g enable-background="new" fill="#9c9c9c" transform="translate(-47 -4)"><path d="m146.2 14 3.8-9.9h1.2l3.8 9.9h-1.3l-.9-2.4h-4.4l-.9 2.4zm2.6-3.5h3.7l-1.8-5z"/><path d="m158.5 14.1c-1 0-1.9-.3-2.7-1l.6-.9c.6.6 1.3.8 2.1.8.4 0 .7-.1 1-.3.2-.2.3-.4.3-.7s-.2-.6-.6-.8c-.1 0-.4-.2-1-.4-.3-.1-.6-.2-.8-.3s-.4-.2-.6-.4-.4-.4-.5-.6-.2-.5-.2-.8c0-.5.2-1 .6-1.3s1-.5 1.6-.5c.9 0 1.7.3 2.4.8l-.6.9c-.5-.5-1.1-.7-1.8-.7-.3 0-.5.1-.7.2s-.3.3-.3.6c0 .2.1.4.3.6s.5.3 1 .5c.9.3 1.4.6 1.7.7.5.3.7.8.7 1.4s-.2 1-.6 1.4c-.5.6-1.1.8-1.9.8z"/><path d="m168.4 14.1c-1 0-1.9-.3-2.7-1l.6-.9c.6.6 1.3.8 2.1.8.4 0 .7-.1 1-.3.2-.2.3-.4.3-.7s-.2-.6-.6-.8c-.1 0-.4-.2-1-.4-.3-.1-.6-.2-.8-.3s-.4-.2-.6-.4-.4-.4-.5-.6-.2-.5-.2-.8c0-.5.2-1 .6-1.3s1-.5 1.6-.5c.9 0 1.7.3 2.4.8l-.6 1.1c-.5-.5-1.1-.7-1.8-.7-.3 0-.5.1-.7.2s-.3.3-.3.6c0 .2.1.4.3.6s.5.3 1 .5c.9.3 1.4.6 1.7.7.5.3.7.8.7 1.4s-.2 1-.6 1.4c-.5.4-1.1.6-1.9.6z"/><path d="m178.5 10.5v.3.2h-5.3c.1.6.3 1.2.7 1.5.4.4 1 .6 1.6.6.8 0 1.5-.3 2-.9l.8.7c-.7.8-1.6 1.3-2.8 1.3-1 0-1.8-.3-2.5-1-.6-.6-1-1.5-1-2.5s.3-1.9.9-2.5c.6-.7 1.4-1 2.4-1 .9 0 1.7.3 2.3 1 .6.5.9 1.3.9 2.3zm-1.8-1.9c-.4-.3-.8-.5-1.4-.5s-1 .2-1.4.5-.6.8-.7 1.4h4.2c-.1-.6-.3-1-.7-1.4z"/><path d="m186.3 10.5v.3.2h-5.3c.1.6.3 1.2.7 1.5.4.4 1 .6 1.6.6.8 0 1.5-.3 2-.9l.8.7c-.7.8-1.6 1.3-2.8 1.3-1 0-1.8-.3-2.5-1-.6-.6-1-1.5-1-2.5s.3-1.9.9-2.5c.6-.7 1.4-1 2.4-1 .9 0 1.7.3 2.3 1 .6.5.9 1.3.9 2.3zm-1.8-1.9c-.4-.3-.8-.5-1.4-.5s-1 .2-1.4.5-.6.8-.7 1.4h4.2c-.2-.6-.4-1-.7-1.4z"/><path d="m187.9 14v-6.8h1.1v1.2c.6-.9 1.4-1.3 2.5-1.3.8 0 1.4.2 1.8.7.5.5.7 1.2.7 2.2v4h-1.1v-3.7c0-1.4-.6-2.1-1.7-2.1-.7 0-1.2.2-1.6.7s-.6 1-.6 1.8v3.3z"/><path d="m202.9 14.1c-1 0-1.9-.3-2.5-1-.7-.7-1-1.5-1-2.5s.3-1.8 1-2.5 1.5-1 2.5-1 1.9.3 2.5 1 1 1.5 1 2.5-.3 1.9-1 2.5-1.5 1-2.5 1zm0-1.1c.7 0 1.2-.2 1.7-.7s.7-1 .7-1.8c0-.7-.2-1.3-.7-1.8s-1-.7-1.7-.7-1.3.2-1.7.7-.7 1.1-.7 1.8.2 1.3.7 1.7c.4.6 1 .8 1.7.8z"/><path d="m208.1 14v-6.8h1.1v1.2c.6-.9 1.4-1.3 2.5-1.3.8 0 1.4.2 1.8.7s.7 1.2.7 2.1v4h-1.2v-3.7c0-1.4-.6-2.1-1.7-2.1-.7 0-1.2.2-1.6.7s-.6 1-.6 1.8v3.4z"/><path d="m218 13.9c-.2.2-.4.2-.6.2s-.4-.1-.6-.2c-.2-.2-.2-.4-.2-.6s.1-.4.2-.6c.2-.2.4-.2.6-.2s.4.1.6.2c.2.2.2.4.2.6s0 .4-.2.6zm4.7 0c-.2.2-.4.2-.6.2s-.4-.1-.6-.2c-.2-.2-.2-.4-.2-.6s.1-.4.2-.6c.2-.2.4-.2.6-.2s.4.1.6.2c.2.2.2.4.2.6s-.1.4-.2.6zm4.6 0c-.2.2-.4.2-.6.2s-.4-.1-.6-.2c-.2-.2-.2-.4-.2-.6s.1-.4.2-.6c.2-.2.4-.2.6-.2s.4.1.6.2c.2.2.2.4.2.6s0 .4-.2.6z"/></g></svg>