<svg height="59" viewBox="0 0 264 59" width="264" xmlns="http://www.w3.org/2000/svg"><g fill="none"><path d="m52.3767535 13.8443478c-6.5074148 0-9.3643287 4.5086957-9.6288577 5.4634783h-.3174349l.0529058-18.98956523h-13.9671342v6.73652174h5.7667334l-.0529058 39.09304349h8.3591183v-16.1252174c0-5.3043478 1.7987976-9.1234783 6.4016032-9.1234783 2.3278557 0 5.7667334.9017392 5.7667334 6.5243479v18.7243478h8.2533066v-20.8991304c0-7.0547827-4.761523-11.4043479-10.6340681-11.4043479z" fill="#0a540a"/><path d="m67.2961924 30.2878261c-.0529058-9.1765218 7.301002-16.6556522 16.4537074-16.7086957 8.993988 0 16.2420842 7.5852174 16.2420842 16.6556522 0 9.2826087-7.2480962 16.8678261-16.4008016 16.8678261s-16.29499-7.6913044-16.29499-16.8147826z" fill="#4cb935"/><g fill="#0a540a"><path d="m106.552305 22.3843478h-6.031263v-6.7895652h13.596794v3.9252174c2.116232-3.6069565 6.031262-5.7286957 10.210821-5.6756522 10.528257.0530435 15.871744 7.6913044 15.871744 16.6556522 0 8.646087-6.877756 16.2313043-15.554309 16.2313043-4.073747 0-8.041683-1.5913043-10.581162-4.9330434v17.1860869h-7.565531zm26.294188 8.1156522c0-5.1982609-4.020842-9.7069565-9.205611-9.7069565-5.290581-.2121739-9.73467 3.9252174-9.893387 9.2295652-.211623 5.3043478 3.91503 9.76 9.205611 9.9191304 5.290581.2121739 9.73467-3.9252174 9.893387-9.2295652 0-.0530435 0-.1060869 0-.2121739z"/><path d="m239.504609.31826087-14.231663-.05304348v6.73652174l6.560321.05304348v31.93217389h-6.560321v6.8426087h18.728657v-6.8426087h-4.391182z"/><path d="m258.233267.31826087-14.178758-.05304348v6.73652174l6.560321.05304348v31.93217389h-3.91503v6.8426087h17.035671v-6.8426087h-5.343487z"/><path d="m181.51984 14.9052174-5.872545 19.5730435-6.401604-19.3608696h-7.618436l-6.348698 19.3608696-5.925451-19.5730435h-8.729459l10.845692 31.1365217 7.882966.0530435 6.084168-16.973913 6.137074 16.973913 7.882966-.0530435 10.792786-31.1365217z"/><path d="m219.03006 18.3c-3.174349-3.2886957-7.512625-5.1982609-12.062525-5.2513043-9.417234 0-16.718236 7.6913043-16.718236 17.4513043 0 9.6008696 7.406813 17.1330435 16.929859 17.08 11.057315-.0530435 14.496193-8.9643478 14.549099-9.0173913l-8.729459-.6895652c-1.640081 1.5382608-3.809219 2.3869565-6.084169 2.333913-4.020841 0-7.565531-2.7052174-8.676553-6.5773913h25.024449l.052906-.4243478c0-.0530435.158717-1.326087.264529-2.5991304.158717-3.4478261-1.481363-8.9643479-4.5499-12.306087zm-12.37996 2.2808696c4.126654-.0530435 7.777155 2.5460869 9.0998 6.4713043h-17.56473c1.058117-3.66 4.761523-6.4713043 8.46493-6.4713043z"/><path d="m28.1458918 32.1973913c-.5819639-1.0078261-1.3226453-1.8565217-2.2749499-2.546087-.9523046-.6895652-2.0633267-1.2730434-3.1743487-1.6443478-1.1639279-.4243478-2.3807615-.7426087-3.5446894-1.0608695-1.2168337-.2652174-2.3807615-.5304348-3.4917836-.7956522-1.0052104-.2121739-2.0104208-.4773913-3.0156312-.7956522-.7406814-.2652174-1.4284569-.6365217-2.0633267-1.113913-.4761523-.4243479-.74068134-1.0078261-.74068134-1.6443479-.05290581-.4773913.10581163-1.007826.42324654-1.3791304.264529-.3713043.6348697-.6365217 1.0581162-.7956522.4761523-.2121739.9523046-.3182608 1.4284569-.3713043s1.0052104-.106087 1.4813627-.106087c1.3226453-.0530435 2.5923848.2652174 3.7563127.8486957 1.0052104.5304348 1.5871743 1.5913043 1.6929859 3.1295652v.2121739h8.4649299v-.2652174c-.1058116-1.7504348-.5819639-3.4478261-1.4813627-4.9330435-.7935872-1.2730434-1.8517034-2.333913-3.1214429-3.1295652-1.3226453-.7956522-2.7511022-1.3791304-4.232465-1.6443478-3.2272545-.6365217-6.5074148-.6365217-9.7346693-.0530435-1.53426853.2652174-2.96272545.7956522-4.33827655 1.5913044-1.26973948.7426087-2.38076152 1.8565217-3.12144289 3.1295652-.84649298 1.5382609-1.26973947 3.2886956-1.16392785 5.0921739-.05290581 1.2730435.26452906 2.4930435.84649299 3.6069565.58196392.9547826 1.32264529 1.8034783 2.27494989 2.44.95230461.6895652 2.06332666 1.1669565 3.1743487 1.5382609 1.16392786.3713043 2.38076153.7426087 3.59759521 1.0078261 2.3807615.4773913 4.6557114 1.113913 6.9306613 1.9095652 1.5871744.6365217 2.3278557 1.4852174 2.3278557 2.6521739 0 .6365217-.1587174 1.22-.4761523 1.7504348-.3174349.4773913-.7406814.8486956-1.2168337 1.113913-.5290581.3182609-1.111022.5304348-1.6929859.6365218-1.3755511.3182608-2.7511022.2652174-4.1266533-.106087-.6877756-.1591304-1.3755511-.4773913-1.9575151-.8486956-.5819639-.3713044-1.0581162-.9017392-1.37555107-1.4852174-.37034068-.6895652-.52905811-1.4852174-.52905811-2.2808696v-.2652174h-8.46492986v.2652174c0 1.8565217.4761523 3.7130435 1.42845691 5.3573913.84649299 1.3791304 1.95751503 2.546087 3.33306613 3.4478261 1.42845692.9017391 2.96272546 1.5382609 4.60280562 1.8565217 1.74589178.3713044 3.49178358.5304348 5.23767538.5304348 1.7458917 0 3.4388777-.1591304 5.1318637-.5304348 1.5871743-.3182608 3.1214429-.9547826 4.5498998-1.8034782 1.3226453-.8486957 2.4336673-2.0686957 3.2272545-3.4478261.846493-1.6443478 1.3226453-3.4478261 1.2168337-5.3043478 0-1.326087-.2645291-2.5991305-.846493-3.766087z"/></g></g></svg>